# xmcd CD database file
#
# Track frame offsets:
#	150
#	25569
#	42179
#	54866
#	65761
#	86890
#	116822
#	155956
#	188306
#	226199
#	237057
#	272919
#
# Disc length: 3938 seconds
#
# Revision: 0
# Processed by: cddbd v1.5.2PL0 Copyright (c) Steve Scherf et al.
# Submitted via: CDex 1.51
#
DISCID=980f600c
DTITLE=Joe Vitale - The Secret to Attracting Money [CD6]
DYEAR=2009
DGENRE=New Age
TTITLE0=Making wealth a study
TTITLE1=Audio recommendations
TTITLE2=A new definitiion of marketing
TTITLE3=Time management tips
TTITLE4=An advanced time management exercise
TTITLE5=The million dollar secret formula five-step process
TTITLE6=Getting ideas for starting a business
TTITLE7=Searching the public domain
TTITLE8=Three ways to get traffic to your website
TTITLE9=Sending out a news release
TTITLE10=The business purpose exercise
TTITLE11=Dare something worthy!
EXTD=YEAR: 2009
EXTT0=
EXTT1=
EXTT2=
EXTT3=
EXTT4=
EXTT5=
EXTT6=
EXTT7=
EXTT8=
EXTT9=
EXTT10=
EXTT11=
PLAYORDER=
